<?xml version="1.0" encoding="UTF-8"?>
<svg width="100px" height="100px" viewBox="0 0 100 100" version="1.1" xmlns="http://www.w3.org/2000/svg" xmlns:xlink="http://www.w3.org/1999/xlink">
    <!-- Generator: Sketch 48.2 (47327) - http://www.bohemiancoding.com/sketch -->
    <title>noun_633378_cc</title>
    <desc>Created with Sketch.</desc>
    <defs></defs>
    <g id="Page-1" stroke="none" stroke-width="1" fill="none" fill-rule="evenodd">
        <g id="noun_633378_cc" transform="translate(0.000000, 8.000000)" fill="#000000" fill-rule="nonzero">
            <path d="M98.7804878,82.5731707 L1.2195122,82.5731707 C0.545994208,82.5731707 0,82.0271765 0,81.3536585 C0,80.6801405 0.545994208,80.1341463 1.2195122,80.1341463 L98.7804878,80.1341463 C99.4540058,80.1341463 100,80.6801405 100,81.3536585 C100,82.0271765 99.4540058,82.5731707 98.7804878,82.5731707 Z" id="Shape"></path>
            <path d="M16.9756098,82.5731707 C16.3020918,82.5731707 15.7560976,82.0271765 15.7560976,81.3536585 L15.7560976,44.4634146 L9.04878049,44.4634146 L9.04878049,81.3536585 C9.04878049,82.0271765 8.50278628,82.5731707 7.82926829,82.5731707 C7.15575031,82.5731707 6.6097561,82.0271765 6.6097561,81.3536585 L6.6097561,43.2439024 C6.6097561,42.5703845 7.15575031,42.0243902 7.82926829,42.0243902 L16.9756098,42.0243902 C17.6491277,42.0243902 18.195122,42.5703845 18.195122,43.2439024 L18.195122,81.3536585 C18.195122,82.0271765 17.6491277,82.5731707 16.9756098,82.5731707 Z" id="Shape"></path>
            <path d="M34.2439024,82.5731707 C33.5703845,82.5731707 33.0243902,82.0271765 33.0243902,81.3536585 L33.0243902,34.304878 L26.3170732,34.304878 L26.3170732,81.3536585 C26.3170732,82.0271765 25.771079,82.5731707 25.097561,82.5731707 C24.424043,82.5731707 23.8780488,82.0271765 23.8780488,81.3536585 L23.8780488,33.0853659 C23.8780488,32.4118479 24.424043,31.8658537 25.097561,31.8658537 L34.2439024,31.8658537 C34.9174204,31.8658537 35.4634146,32.4118479 35.4634146,33.0853659 L35.4634146,81.3536585 C35.4634146,82.0271765 34.9174204,82.5731707 34.2439024,82.5731707 Z" id="Shape"></path>
            <path d="M51.5243902,82.5731707 C50.8508723,82.5731707 50.304878,82.0271765 50.304878,81.3536585 L50.304878,51.5731707 L43.597561,51.5731707 L43.597561,81.3536585 C43.597561,82.0271765 43.0515668,82.5731707 42.3780488,82.5731707 C41.7045308,82.5731707 41.1585366,82.0271765 41.1585366,81.3536585 L41.1585366,50.3536585 C41.1585366,49.6801405 41.7045308,49.1341463 42.3780488,49.1341463 L51.5243902,49.1341463 C52.1979082,49.1341463 52.7439024,49.6801405 52.7439024,50.3536585 L52.7439024,81.3536585 C52.7439024,82.0271765 52.1979082,82.5731707 51.5243902,82.5731707 Z" id="Shape"></path>
            <path d="M68.804878,82.5731707 C68.1313601,82.5731707 67.5853659,82.0271765 67.5853659,81.3536585 L67.5853659,34.304878 L60.8780488,34.304878 L60.8780488,81.3536585 C60.8780488,82.0271765 60.3320546,82.5731707 59.6585366,82.5731707 C58.9850186,82.5731707 58.4390244,82.0271765 58.4390244,81.3536585 L58.4390244,33.0853659 C58.4390244,32.4118479 58.9850186,31.8658537 59.6585366,31.8658537 L68.804878,31.8658537 C69.478396,31.8658537 70.0243902,32.4118479 70.0243902,33.0853659 L70.0243902,81.3536585 C70.0243902,82.0271765 69.478396,82.5731707 68.804878,82.5731707 Z" id="Shape"></path>
            <path d="M86.0731707,82.5731707 C85.3996527,82.5731707 84.8536585,82.0271765 84.8536585,81.3536585 L84.8536585,19.0609756 L78.1463415,19.0609756 L78.1463415,81.3536585 C78.1463415,82.0271765 77.6003473,82.5731707 76.9268293,82.5731707 C76.2533113,82.5731707 75.7073171,82.0271765 75.7073171,81.3536585 L75.7073171,17.8414634 C75.7073171,17.1679454 76.2533113,16.6219512 76.9268293,16.6219512 L86.0731707,16.6219512 C86.7466887,16.6219512 87.2926829,17.1679454 87.2926829,17.8414634 L87.2926829,81.3536585 C87.2926829,82.0271765 86.7466887,82.5731707 86.0731707,82.5731707 Z" id="Shape"></path>
            <path d="M46.9512195,38.3658537 C46.615623,38.3582701 46.2979921,38.2126893 46.0731707,37.9634146 L29.5731707,19.5121951 L13.2073171,34 C12.6988842,34.4095146 11.9581281,34.3459918 11.5268406,33.8558924 C11.0955532,33.3657931 11.1267268,32.6229722 11.597561,32.1707317 L28.8780488,16.9268293 C29.3801493,16.4798845 30.1492372,16.5235207 30.597561,17.0243902 L46.9878049,35.3658537 L80.6341463,0.731707317 C80.9391292,0.420189115 81.3871379,0.29504083 81.809412,0.403404612 C82.231686,0.511768394 82.564072,0.837181207 82.6813632,1.25706318 C82.7986544,1.67694516 82.6830316,2.12750623 82.3780488,2.43902439 L47.8292683,38 C47.5981728,38.2357758 47.2813583,38.3677818 46.9512195,38.3658537 Z" id="Shape"></path>
            <path d="M81.5,11.7682927 C80.826482,11.7682927 80.2804878,11.2222985 80.2804878,10.5487805 L80.2804878,2.79268293 L72.5243902,2.79268293 C71.8508723,2.79268293 71.304878,2.24668872 71.304878,1.57317073 C71.304878,0.899652744 71.8508723,0.353658537 72.5243902,0.353658537 L81.5,0.353658537 C82.173518,0.353658537 82.7195122,0.899652744 82.7195122,1.57317073 L82.7195122,10.5487805 C82.7195122,11.2222985 82.173518,11.7682927 81.5,11.7682927 Z" id="Shape"></path>
        </g>
    </g>
</svg>